<svg xmlns="http://www.w3.org/2000/svg" width="256" height="256" viewBox="0 0 100 100"><rect width="100" height="100" rx="20" fill="#000000"></rect><path fill="#967b65" d="M39.46 61.66Q41.11 61.81 41.83 62.52Q42.54 63.24 42.54 64.51L42.54 64.51Q42.54 66.01 41.38 66.80Q40.21 67.59 37.96 67.44L37.96 67.44L35.94 67.29Q29.86 66.84 26.86 63.58Q23.86 60.31 23.86 53.94L23.86 53.94L23.86 36.31L19.36 36.31Q16.06 36.31 16.06 33.39L16.06 33.39Q16.06 32.04 16.93 31.25Q17.79 30.46 19.36 30.46L19.36 30.46L23.86 30.46L23.86 22.74Q23.86 21.01 24.88 20.04Q25.89 19.06 27.61 19.06L27.61 19.06Q29.34 19.06 30.39 20.04Q31.44 21.01 31.44 22.74L31.44 22.74L31.44 30.46L38.86 30.46Q40.44 30.46 41.30 31.25Q42.16 32.04 42.16 33.39L42.16 33.39Q42.16 34.81 41.30 35.56Q40.44 36.31 38.86 36.31L38.86 36.31L31.44 36.31L31.44 54.46Q31.44 57.99 32.90 59.64Q34.36 61.29 37.36 61.51L37.36 61.51L39.46 61.66ZM67.66 29.56Q72.39 29.56 76.10 31.96Q79.81 34.36 81.88 38.71Q83.94 43.06 83.94 48.76L83.94 48.76Q83.94 54.39 81.91 58.66Q79.89 62.94 76.18 65.26Q72.46 67.59 67.66 67.59L67.66 67.59Q63.54 67.59 60.39 65.83Q57.24 64.06 55.59 60.76L55.59 60.76L55.59 77.49Q55.59 79.06 54.58 80Q53.56 80.94 51.91 80.94L51.91 80.94Q50.19 80.94 49.10 79.96Q48.01 78.99 48.01 77.34L48.01 77.34L48.01 33.39Q48.01 31.74 49.06 30.73Q50.11 29.71 51.84 29.71L51.84 29.71Q53.49 29.71 54.54 30.73Q55.59 31.74 55.59 33.39L55.59 33.39L55.59 36.46Q57.24 33.16 60.39 31.36Q63.54 29.56 67.66 29.56L67.66 29.56ZM65.86 61.59Q70.81 61.59 73.51 58.25Q76.21 54.91 76.21 48.76L76.21 48.76Q76.21 42.54 73.47 39.09Q70.74 35.64 65.86 35.64L65.86 35.64Q60.91 35.64 58.25 39.01Q55.59 42.39 55.59 48.61L55.59 48.61Q55.59 54.84 58.25 58.21Q60.91 61.59 65.86 61.59L65.86 61.59Z"></path></svg>